<svg xmlns="http://www.w3.org/2000/svg" width="512" height="512" viewBox="0 0 512 512">
<path fill="#000" d="M1895 4899c-231-31-445-123-619-268-59-48-82-61-131-71-220-46-474-190-620-352-171-190-279-429-305-678-13-126-13-1814 0-1940 47-448 349-834 770-984 52-19 122-39 154-46 49-10 73-23 141-79 322-260 748-335 1132-200 114 40 1885 926 1980 991 345 232 545 660 503 1075-6 60-17 132-25 161-11 44-11 60 0 105 8 28 19 100 25 160 35 348-104 720-358 959-39 37-104 89-145 116-94 64-1866 950-1978 990-164 58-371 82-524 61z m133-1084c86-26 1519-746 1587-798 61-45 130-129 167-200 30-59 58-183 58-257 0-74-28-198-58-257-37-71-106-155-167-200-73-55-1502-772-1589-797-210-61-418-7-576 152-54 54-86 97-108 143-63 131-62 118-62 960 0 731 1 769 20 843 27 108 63 169 150 257 84 85 180 141 284 165 75 17 220 12 294-11z"/>
</svg>
